<svg xmlns="http://www.w3.org/2000/svg" width="1600" height="1000" viewBox="0 0 1600 1000" role="img" aria-labelledby="title desc">
  <title id="title">WP Crypto Direct Gateway WooCommerce Multi-Network Payment Views</title>
  <desc id="desc">Prepared source artwork showing WooCommerce payment instructions styled like dark mobile wallet receive screens for ETH, USDT on Ethereum, and USDT on Tron.</desc>
  <defs>
    <linearGradient id="bg" x1="0" x2="1" y1="0" y2="1">
      <stop offset="0%" stop-color="#eff3f8"/>
      <stop offset="100%" stop-color="#e4eaf2"/>
    </linearGradient>
    <linearGradient id="phone" x1="0" x2="0" y1="0" y2="1">
      <stop offset="0%" stop-color="#121d2a"/>
      <stop offset="100%" stop-color="#0b141f"/>
    </linearGradient>
  </defs>
  <rect width="1600" height="1000" fill="url(#bg)"/>
  <text x="100" y="118" font-size="20" font-family="Arial, sans-serif" fill="#6e7b8d" letter-spacing="3">WOOCOMMERCE PAYMENT EXPERIENCES</text>
  <text x="100" y="178" font-size="56" font-family="Arial, sans-serif" fill="#101923" font-weight="700">Thank-you page and email views mirror wallet receive screens</text>
  <text x="100" y="220" font-size="24" font-family="Arial, sans-serif" fill="#667487">Three branded deposit states show how ETH, USDT ERC20, and USDT TRC20 instructions appear after checkout.</text>

  <rect x="110" y="286" width="398" height="610" rx="44" fill="url(#phone)"/>
  <rect x="128" y="308" width="362" height="566" rx="34" fill="#0a1119" stroke="#1d2c3c"/>
  <text x="166" y="356" font-size="18" font-family="Arial, sans-serif" fill="#7f94a8">ETH Payment</text>
  <text x="166" y="394" font-size="32" font-family="Arial, sans-serif" fill="#ffffff" font-weight="700">Order #1084</text>
  <rect x="182" y="430" width="254" height="254" rx="22" fill="#ffffff"/>
  <path d="M214 462h46v46h-46zm130 0h46v46h-46zm-130 130h46v-46h-46zm130 0h-46v-46h46zm-92-92h18v18h-18zm28 0h18v18h-18zm0 28h18v18h-18zm28 28h18v18h-18zm-56 28h18v18h-18zm84-56h18v18h-18zm-56 56h18v18h-18z" fill="#0f1722"/>
  <text x="166" y="734" font-size="18" font-family="Arial, sans-serif" fill="#8ca0b4">Send exactly</text>
  <text x="166" y="768" font-size="34" font-family="Arial, sans-serif" fill="#ffffff" font-weight="700">0.018745 ETH</text>
  <text x="166" y="808" font-size="17" font-family="Arial, sans-serif" fill="#7f94a8">0x08CA715802e9B7Be5F21D8e3fDcb44a0c44Fe23A</text>
  <text x="166" y="840" font-size="15" font-family="Arial, sans-serif" fill="#6e8297">Static QR: /assets/wallet-qr/eth-wallet.jpeg</text>

  <rect x="600" y="246" width="398" height="650" rx="44" fill="url(#phone)"/>
  <rect x="618" y="268" width="362" height="606" rx="34" fill="#0a1119" stroke="#1d2c3c"/>
  <text x="656" y="316" font-size="18" font-family="Arial, sans-serif" fill="#7f94a8">USDT Ethereum</text>
  <text x="656" y="354" font-size="32" font-family="Arial, sans-serif" fill="#ffffff" font-weight="700">On-hold email block</text>
  <rect x="672" y="390" width="254" height="254" rx="22" fill="#ffffff"/>
  <path d="M704 422h46v46h-46zm130 0h46v46h-46zm-130 130h46v-46h-46zm130 0h-46v-46h46zm-92-92h18v18h-18zm28 0h18v18h-18zm0 28h18v18h-18zm28 28h18v18h-18zm-56 28h18v18h-18zm84-56h18v18h-18zm-56 56h18v18h-18z" fill="#0f1722"/>
  <rect x="656" y="684" width="162" height="40" rx="20" fill="#1a7f6a"/>
  <text x="703" y="710" font-size="16" font-family="Arial, sans-serif" fill="#eafffb">Paid</text>
  <text x="656" y="764" font-size="18" font-family="Arial, sans-serif" fill="#8ca0b4">Amount</text>
  <text x="656" y="798" font-size="34" font-family="Arial, sans-serif" fill="#ffffff" font-weight="700">49.978412 USDT</text>
  <text x="656" y="836" font-size="17" font-family="Arial, sans-serif" fill="#7f94a8">0x08CA715802e9B7Be5F21D8e3fDcb44a0c44Fe23A</text>
  <text x="656" y="864" font-size="15" font-family="Arial, sans-serif" fill="#6e8297">Static QR: /assets/wallet-qr/usdt-erc20-wallet.jpeg</text>

  <rect x="1090" y="286" width="398" height="610" rx="44" fill="url(#phone)"/>
  <rect x="1108" y="308" width="362" height="566" rx="34" fill="#0a1119" stroke="#1d2c3c"/>
  <text x="1146" y="356" font-size="18" font-family="Arial, sans-serif" fill="#7f94a8">USDT Tron</text>
  <text x="1146" y="394" font-size="32" font-family="Arial, sans-serif" fill="#ffffff" font-weight="700">Thank-you page panel</text>
  <rect x="1162" y="430" width="254" height="254" rx="22" fill="#ffffff"/>
  <path d="M1194 462h46v46h-46zm130 0h46v46h-46zm-130 130h46v-46h-46zm130 0h-46v-46h46zm-92-92h18v18h-18zm28 0h18v18h-18zm0 28h18v18h-18zm28 28h18v18h-18zm-56 28h18v18h-18zm84-56h18v18h-18zm-56 56h18v18h-18z" fill="#0f1722"/>
  <rect x="1146" y="724" width="186" height="40" rx="20" fill="#46331b"/>
  <text x="1191" y="750" font-size="16" font-family="Arial, sans-serif" fill="#ffd27d">Awaiting payment</text>
  <text x="1146" y="804" font-size="18" font-family="Arial, sans-serif" fill="#8ca0b4">Wallet</text>
  <text x="1146" y="838" font-size="17" font-family="Arial, sans-serif" fill="#7f94a8">TGkyrQigqKChK4KSfEjTdSRBC2XZboKfAL</text>
  <text x="1146" y="866" font-size="15" font-family="Arial, sans-serif" fill="#6e8297">Static QR: /assets/wallet-qr/usdt-trc20-wallet.jpeg</text>

  <text x="100" y="954" font-size="18" font-family="Arial, sans-serif" fill="#667487">Prepared SVG source asset updated to align WooCommerce screenshots with the dark wallet QR references while keeping the plugin’s live-chain status context.</text>
</svg>